solid OpenSCAD_Model
  facet normal -1 0 0
    outer loop
      vertex -50 500 0
      vertex -50 0 5
      vertex -50 500 5
    endloop
  endfacet
  facet normal -1 0 0
    outer loop
      vertex -50 -500 0
      vertex -50 0 5
      vertex -50 500 0
    endloop
  endfacet
  facet normal -1 -0 0
    outer loop
      vertex -50 0 5
      vertex -50 -500 0
      vertex -50 -500 5
    endloop
  endfacet
  facet normal 0 0 1
    outer loop
      vertex 950 500 5
      vertex 50 0 5
      vertex 950 -500 5
    endloop
  endfacet
  facet normal 0 0 1
    outer loop
      vertex 950 500 5
      vertex 49.2404 8.68241 5
      vertex 50 0 5
    endloop
  endfacet
  facet normal 0 0 1
    outer loop
      vertex 950 500 5
      vertex 46.9846 17.101 5
      vertex 49.2404 8.68241 5
    endloop
  endfacet
  facet normal 0 0 1
    outer loop
      vertex 950 500 5
      vertex 43.3013 25 5
      vertex 46.9846 17.101 5
    endloop
  endfacet
  facet normal 0 0 1
    outer loop
      vertex 950 500 5
      vertex 38.3022 32.1394 5
      vertex 43.3013 25 5
    endloop
  endfacet
  facet normal -0 0 1
    outer loop
      vertex -50 500 5
      vertex 38.3022 32.1394 5
      vertex 950 500 5
    endloop
  endfacet
  facet normal 0 0 1
    outer loop
      vertex 38.3022 32.1394 5
      vertex -50 500 5
      vertex 32.1394 38.3022 5
    endloop
  endfacet
  facet normal 0 0 1
    outer loop
      vertex 32.1394 38.3022 5
      vertex -50 500 5
      vertex 25 43.3013 5
    endloop
  endfacet
  facet normal 0 0 1
    outer loop
      vertex 25 43.3013 5
      vertex -50 500 5
      vertex 17.101 46.9846 5
    endloop
  endfacet
  facet normal 0 0 1
    outer loop
      vertex 17.101 46.9846 5
      vertex -50 500 5
      vertex 8.68241 49.2404 5
    endloop
  endfacet
  facet normal 0 0 1
    outer loop
      vertex 8.68241 49.2404 5
      vertex -50 500 5
      vertex 0 50 5
    endloop
  endfacet
  facet normal 0 0 1
    outer loop
      vertex 0 50 5
      vertex -50 500 5
      vertex -8.68241 49.2404 5
    endloop
  endfacet
  facet normal 0 0 1
    outer loop
      vertex -8.68241 49.2404 5
      vertex -50 500 5
      vertex -17.101 46.9846 5
    endloop
  endfacet
  facet normal 0 0 1
    outer loop
      vertex -17.101 46.9846 5
      vertex -50 500 5
      vertex -25 43.3013 5
    endloop
  endfacet
  facet normal 0 0 1
    outer loop
      vertex -50 500 5
      vertex -32.1394 38.3022 5
      vertex -25 43.3013 5
    endloop
  endfacet
  facet normal 0 0 1
    outer loop
      vertex -50 500 5
      vertex -38.3022 32.1394 5
      vertex -32.1394 38.3022 5
    endloop
  endfacet
  facet normal 0 0 1
    outer loop
      vertex -50 500 5
      vertex -43.3013 25 5
      vertex -38.3022 32.1394 5
    endloop
  endfacet
  facet normal 0 0 1
    outer loop
      vertex -50 500 5
      vertex -46.9846 17.101 5
      vertex -43.3013 25 5
    endloop
  endfacet
  facet normal 0 0 1
    outer loop
      vertex -50 500 5
      vertex -49.2404 8.68241 5
      vertex -46.9846 17.101 5
    endloop
  endfacet
  facet normal 0 0 1
    outer loop
      vertex -49.2404 8.68241 5
      vertex -50 500 5
      vertex -50 0 5
    endloop
  endfacet
  facet normal -0 0 1
    outer loop
      vertex 49.2404 -8.68241 5
      vertex 950 -500 5
      vertex 50 0 5
    endloop
  endfacet
  facet normal -0 0 1
    outer loop
      vertex 46.9846 -17.101 5
      vertex 950 -500 5
      vertex 49.2404 -8.68241 5
    endloop
  endfacet
  facet normal -0 0 1
    outer loop
      vertex 43.3013 -25 5
      vertex 950 -500 5
      vertex 46.9846 -17.101 5
    endloop
  endfacet
  facet normal -0 0 1
    outer loop
      vertex 38.3022 -32.1394 5
      vertex 950 -500 5
      vertex 43.3013 -25 5
    endloop
  endfacet
  facet normal 0 0 1
    outer loop
      vertex -50 -500 5
      vertex 38.3022 -32.1394 5
      vertex 32.1394 -38.3022 5
    endloop
  endfacet
  facet normal 0 0 1
    outer loop
      vertex -50 -500 5
      vertex 32.1394 -38.3022 5
      vertex 25 -43.3013 5
    endloop
  endfacet
  facet normal 0 0 1
    outer loop
      vertex -50 -500 5
      vertex 25 -43.3013 5
      vertex 17.101 -46.9846 5
    endloop
  endfacet
  facet normal 0 0 1
    outer loop
      vertex -50 -500 5
      vertex 17.101 -46.9846 5
      vertex 8.68241 -49.2404 5
    endloop
  endfacet
  facet normal 0 0 1
    outer loop
      vertex -50 -500 5
      vertex 8.68241 -49.2404 5
      vertex 0 -50 5
    endloop
  endfacet
  facet normal 0 0 1
    outer loop
      vertex -50 -500 5
      vertex 0 -50 5
      vertex -8.68241 -49.2404 5
    endloop
  endfacet
  facet normal 0 0 1
    outer loop
      vertex -50 -500 5
      vertex -8.68241 -49.2404 5
      vertex -17.101 -46.9846 5
    endloop
  endfacet
  facet normal 0 0 1
    outer loop
      vertex -50 -500 5
      vertex -17.101 -46.9846 5
      vertex -25 -43.3013 5
    endloop
  endfacet
  facet normal 0 0 1
    outer loop
      vertex 38.3022 -32.1394 5
      vertex -50 -500 5
      vertex 950 -500 5
    endloop
  endfacet
  facet normal 0 0 1
    outer loop
      vertex -32.1394 -38.3022 5
      vertex -50 -500 5
      vertex -25 -43.3013 5
    endloop
  endfacet
  facet normal 0 0 1
    outer loop
      vertex -38.3022 -32.1394 5
      vertex -50 -500 5
      vertex -32.1394 -38.3022 5
    endloop
  endfacet
  facet normal 0 0 1
    outer loop
      vertex -43.3013 -25 5
      vertex -50 -500 5
      vertex -38.3022 -32.1394 5
    endloop
  endfacet
  facet normal 0 0 1
    outer loop
      vertex -46.9846 -17.101 5
      vertex -50 -500 5
      vertex -43.3013 -25 5
    endloop
  endfacet
  facet normal 0 0 1
    outer loop
      vertex -49.2404 -8.68241 5
      vertex -50 -500 5
      vertex -46.9846 -17.101 5
    endloop
  endfacet
  facet normal 0 0 1
    outer loop
      vertex -50 -500 5
      vertex -49.2404 -8.68241 5
      vertex -50 0 5
    endloop
  endfacet
  facet normal 1 -0 0
    outer loop
      vertex 950 -500 5
      vertex 950 500 0
      vertex 950 500 5
    endloop
  endfacet
  facet normal 1 0 0
    outer loop
      vertex 950 500 0
      vertex 950 -500 5
      vertex 950 -500 0
    endloop
  endfacet
  facet normal 0 1 -0
    outer loop
      vertex 950 500 0
      vertex -50 500 5
      vertex 950 500 5
    endloop
  endfacet
  facet normal 0 1 0
    outer loop
      vertex -50 500 5
      vertex 950 500 0
      vertex -50 500 0
    endloop
  endfacet
  facet normal 0 0 -1
    outer loop
      vertex -50 -500 0
      vertex 950 500 0
      vertex 950 -500 0
    endloop
  endfacet
  facet normal -0 0 -1
    outer loop
      vertex 950 500 0
      vertex -50 -500 0
      vertex -50 500 0
    endloop
  endfacet
  facet normal 0 -1 0
    outer loop
      vertex -50 -500 0
      vertex 950 -500 5
      vertex -50 -500 5
    endloop
  endfacet
  facet normal 0 -1 -0
    outer loop
      vertex 950 -500 5
      vertex -50 -500 0
      vertex 950 -500 0
    endloop
  endfacet
  facet normal 0.573576 0.819152 -0
    outer loop
      vertex 32.1394 38.3022 5
      vertex 25 43.3013 1005
      vertex 32.1394 38.3022 1005
    endloop
  endfacet
  facet normal 0.573576 0.819152 0
    outer loop
      vertex 25 43.3013 1005
      vertex 32.1394 38.3022 5
      vertex 25 43.3013 5
    endloop
  endfacet
  facet normal -0.906308 0.422618 0
    outer loop
      vertex -46.9846 17.101 5
      vertex -43.3013 25 1005
      vertex -43.3013 25 5
    endloop
  endfacet
  facet normal -0.906308 0.422618 0
    outer loop
      vertex -43.3013 25 1005
      vertex -46.9846 17.101 5
      vertex -46.9846 17.101 1005
    endloop
  endfacet
  facet normal -0.422618 -0.906308 0
    outer loop
      vertex -25 -43.3013 5
      vertex -17.101 -46.9846 1005
      vertex -25 -43.3013 1005
    endloop
  endfacet
  facet normal -0.422618 -0.906308 -0
    outer loop
      vertex -17.101 -46.9846 1005
      vertex -25 -43.3013 5
      vertex -17.101 -46.9846 5
    endloop
  endfacet
  facet normal -0.258819 0.965926 0
    outer loop
      vertex -8.68241 49.2404 5
      vertex -17.101 46.9846 1005
      vertex -8.68241 49.2404 1005
    endloop
  endfacet
  facet normal -0.258819 0.965926 0
    outer loop
      vertex -17.101 46.9846 1005
      vertex -8.68241 49.2404 5
      vertex -17.101 46.9846 5
    endloop
  endfacet
  facet normal -0.819152 0.573576 0
    outer loop
      vertex -43.3013 25 5
      vertex -38.3022 32.1394 1005
      vertex -38.3022 32.1394 5
    endloop
  endfacet
  facet normal -0.819152 0.573576 0
    outer loop
      vertex -38.3022 32.1394 1005
      vertex -43.3013 25 5
      vertex -43.3013 25 1005
    endloop
  endfacet
  facet normal 0.965926 0.258819 0
    outer loop
      vertex 49.2404 8.68241 1005
      vertex 46.9846 17.101 5
      vertex 46.9846 17.101 1005
    endloop
  endfacet
  facet normal 0.965926 0.258819 0
    outer loop
      vertex 46.9846 17.101 5
      vertex 49.2404 8.68241 1005
      vertex 49.2404 8.68241 5
    endloop
  endfacet
  facet normal 0.906308 0.422618 0
    outer loop
      vertex 46.9846 17.101 1005
      vertex 43.3013 25 5
      vertex 43.3013 25 1005
    endloop
  endfacet
  facet normal 0.906308 0.422618 0
    outer loop
      vertex 43.3013 25 5
      vertex 46.9846 17.101 1005
      vertex 46.9846 17.101 5
    endloop
  endfacet
  facet normal 0.819152 0.573576 0
    outer loop
      vertex 43.3013 25 1005
      vertex 38.3022 32.1394 5
      vertex 38.3022 32.1394 1005
    endloop
  endfacet
  facet normal 0.819152 0.573576 0
    outer loop
      vertex 38.3022 32.1394 5
      vertex 43.3013 25 1005
      vertex 43.3013 25 5
    endloop
  endfacet
  facet normal 0.707107 0.707107 0
    outer loop
      vertex 38.3022 32.1394 1005
      vertex 32.1394 38.3022 5
      vertex 32.1394 38.3022 1005
    endloop
  endfacet
  facet normal 0.707107 0.707107 0
    outer loop
      vertex 32.1394 38.3022 5
      vertex 38.3022 32.1394 1005
      vertex 38.3022 32.1394 5
    endloop
  endfacet
  facet normal 0.422618 0.906308 -0
    outer loop
      vertex 25 43.3013 5
      vertex 17.101 46.9846 1005
      vertex 25 43.3013 1005
    endloop
  endfacet
  facet normal 0.422618 0.906308 0
    outer loop
      vertex 17.101 46.9846 1005
      vertex 25 43.3013 5
      vertex 17.101 46.9846 5
    endloop
  endfacet
  facet normal 0.0871558 0.996195 -0
    outer loop
      vertex 8.68241 49.2404 5
      vertex 0 50 1005
      vertex 8.68241 49.2404 1005
    endloop
  endfacet
  facet normal 0.0871558 0.996195 0
    outer loop
      vertex 0 50 1005
      vertex 8.68241 49.2404 5
      vertex 0 50 5
    endloop
  endfacet
  facet normal 0.258819 0.965926 -0
    outer loop
      vertex 17.101 46.9846 5
      vertex 8.68241 49.2404 1005
      vertex 17.101 46.9846 1005
    endloop
  endfacet
  facet normal 0.258819 0.965926 0
    outer loop
      vertex 8.68241 49.2404 1005
      vertex 17.101 46.9846 5
      vertex 8.68241 49.2404 5
    endloop
  endfacet
  facet normal -0.965926 0.258819 0
    outer loop
      vertex -49.2404 8.68241 5
      vertex -46.9846 17.101 1005
      vertex -46.9846 17.101 5
    endloop
  endfacet
  facet normal -0.965926 0.258819 0
    outer loop
      vertex -46.9846 17.101 1005
      vertex -49.2404 8.68241 5
      vertex -49.2404 8.68241 1005
    endloop
  endfacet
  facet normal -0.707107 0.707107 0
    outer loop
      vertex -38.3022 32.1394 5
      vertex -32.1394 38.3022 1005
      vertex -32.1394 38.3022 5
    endloop
  endfacet
  facet normal -0.707107 0.707107 0
    outer loop
      vertex -32.1394 38.3022 1005
      vertex -38.3022 32.1394 5
      vertex -38.3022 32.1394 1005
    endloop
  endfacet
  facet normal -0.422618 0.906308 0
    outer loop
      vertex -17.101 46.9846 5
      vertex -25 43.3013 1005
      vertex -17.101 46.9846 1005
    endloop
  endfacet
  facet normal -0.422618 0.906308 0
    outer loop
      vertex -25 43.3013 1005
      vertex -17.101 46.9846 5
      vertex -25 43.3013 5
    endloop
  endfacet
  facet normal -0.0871558 0.996195 0
    outer loop
      vertex 0 50 5
      vertex -8.68241 49.2404 1005
      vertex 0 50 1005
    endloop
  endfacet
  facet normal -0.0871558 0.996195 0
    outer loop
      vertex -8.68241 49.2404 1005
      vertex 0 50 5
      vertex -8.68241 49.2404 5
    endloop
  endfacet
  facet normal -0.573576 0.819152 0
    outer loop
      vertex -25 43.3013 5
      vertex -32.1394 38.3022 1005
      vertex -25 43.3013 1005
    endloop
  endfacet
  facet normal -0.573576 0.819152 0
    outer loop
      vertex -32.1394 38.3022 1005
      vertex -25 43.3013 5
      vertex -32.1394 38.3022 5
    endloop
  endfacet
  facet normal 0.996195 0.0871558 0
    outer loop
      vertex 50 0 1005
      vertex 49.2404 8.68241 5
      vertex 49.2404 8.68241 1005
    endloop
  endfacet
  facet normal 0.996195 0.0871558 0
    outer loop
      vertex 49.2404 8.68241 5
      vertex 50 0 1005
      vertex 50 0 5
    endloop
  endfacet
  facet normal 0.0871558 -0.996195 0
    outer loop
      vertex 0 -50 5
      vertex 8.68241 -49.2404 1005
      vertex 0 -50 1005
    endloop
  endfacet
  facet normal 0.0871558 -0.996195 0
    outer loop
      vertex 8.68241 -49.2404 1005
      vertex 0 -50 5
      vertex 8.68241 -49.2404 5
    endloop
  endfacet
  facet normal 0.258819 -0.965926 0
    outer loop
      vertex 8.68241 -49.2404 5
      vertex 17.101 -46.9846 1005
      vertex 8.68241 -49.2404 1005
    endloop
  endfacet
  facet normal 0.258819 -0.965926 0
    outer loop
      vertex 17.101 -46.9846 1005
      vertex 8.68241 -49.2404 5
      vertex 17.101 -46.9846 5
    endloop
  endfacet
  facet normal 0.819152 -0.573576 0
    outer loop
      vertex 38.3022 -32.1394 1005
      vertex 43.3013 -25 5
      vertex 43.3013 -25 1005
    endloop
  endfacet
  facet normal 0.819152 -0.573576 0
    outer loop
      vertex 43.3013 -25 5
      vertex 38.3022 -32.1394 1005
      vertex 38.3022 -32.1394 5
    endloop
  endfacet
  facet normal -0.258819 -0.965926 0
    outer loop
      vertex -17.101 -46.9846 5
      vertex -8.68241 -49.2404 1005
      vertex -17.101 -46.9846 1005
    endloop
  endfacet
  facet normal -0.258819 -0.965926 -0
    outer loop
      vertex -8.68241 -49.2404 1005
      vertex -17.101 -46.9846 5
      vertex -8.68241 -49.2404 5
    endloop
  endfacet
  facet normal -0.707107 -0.707107 0
    outer loop
      vertex -32.1394 -38.3022 5
      vertex -38.3022 -32.1394 1005
      vertex -38.3022 -32.1394 5
    endloop
  endfacet
  facet normal -0.707107 -0.707107 0
    outer loop
      vertex -38.3022 -32.1394 1005
      vertex -32.1394 -38.3022 5
      vertex -32.1394 -38.3022 1005
    endloop
  endfacet
  facet normal -0.906308 -0.422618 0
    outer loop
      vertex -43.3013 -25 5
      vertex -46.9846 -17.101 1005
      vertex -46.9846 -17.101 5
    endloop
  endfacet
  facet normal -0.906308 -0.422618 0
    outer loop
      vertex -46.9846 -17.101 1005
      vertex -43.3013 -25 5
      vertex -43.3013 -25 1005
    endloop
  endfacet
  facet normal -0.996195 -0.0871558 0
    outer loop
      vertex -49.2404 -8.68241 5
      vertex -50 0 1005
      vertex -50 0 5
    endloop
  endfacet
  facet normal -0.996195 -0.0871558 0
    outer loop
      vertex -50 0 1005
      vertex -49.2404 -8.68241 5
      vertex -49.2404 -8.68241 1005
    endloop
  endfacet
  facet normal -0.819152 -0.573576 0
    outer loop
      vertex -38.3022 -32.1394 5
      vertex -43.3013 -25 1005
      vertex -43.3013 -25 5
    endloop
  endfacet
  facet normal -0.819152 -0.573576 0
    outer loop
      vertex -43.3013 -25 1005
      vertex -38.3022 -32.1394 5
      vertex -38.3022 -32.1394 1005
    endloop
  endfacet
  facet normal -0.996195 0.0871558 0
    outer loop
      vertex -50 0 5
      vertex -49.2404 8.68241 1005
      vertex -49.2404 8.68241 5
    endloop
  endfacet
  facet normal -0.996195 0.0871558 0
    outer loop
      vertex -49.2404 8.68241 1005
      vertex -50 0 5
      vertex -50 0 1005
    endloop
  endfacet
  facet normal 0 0 1
    outer loop
      vertex 49.2404 8.68241 1005
      vertex 49.2404 -8.68241 1005
      vertex 50 0 1005
    endloop
  endfacet
  facet normal 0 0 1
    outer loop
      vertex 46.9846 17.101 1005
      vertex 49.2404 -8.68241 1005
      vertex 49.2404 8.68241 1005
    endloop
  endfacet
  facet normal 0 0 1
    outer loop
      vertex 46.9846 17.101 1005
      vertex 46.9846 -17.101 1005
      vertex 49.2404 -8.68241 1005
    endloop
  endfacet
  facet normal 0 0 1
    outer loop
      vertex 43.3013 25 1005
      vertex 46.9846 -17.101 1005
      vertex 46.9846 17.101 1005
    endloop
  endfacet
  facet normal 0 0 1
    outer loop
      vertex 43.3013 25 1005
      vertex 43.3013 -25 1005
      vertex 46.9846 -17.101 1005
    endloop
  endfacet
  facet normal 0 0 1
    outer loop
      vertex 38.3022 32.1394 1005
      vertex 43.3013 -25 1005
      vertex 43.3013 25 1005
    endloop
  endfacet
  facet normal 0 0 1
    outer loop
      vertex 38.3022 32.1394 1005
      vertex 38.3022 -32.1394 1005
      vertex 43.3013 -25 1005
    endloop
  endfacet
  facet normal 0 0 1
    outer loop
      vertex 32.1394 38.3022 1005
      vertex 38.3022 -32.1394 1005
      vertex 38.3022 32.1394 1005
    endloop
  endfacet
  facet normal 0 0 1
    outer loop
      vertex 32.1394 38.3022 1005
      vertex 32.1394 -38.3022 1005
      vertex 38.3022 -32.1394 1005
    endloop
  endfacet
  facet normal 0 0 1
    outer loop
      vertex 25 43.3013 1005
      vertex 32.1394 -38.3022 1005
      vertex 32.1394 38.3022 1005
    endloop
  endfacet
  facet normal 0 0 1
    outer loop
      vertex 25 43.3013 1005
      vertex 25 -43.3013 1005
      vertex 32.1394 -38.3022 1005
    endloop
  endfacet
  facet normal 0 0 1
    outer loop
      vertex 17.101 46.9846 1005
      vertex 25 -43.3013 1005
      vertex 25 43.3013 1005
    endloop
  endfacet
  facet normal 0 0 1
    outer loop
      vertex 17.101 46.9846 1005
      vertex 17.101 -46.9846 1005
      vertex 25 -43.3013 1005
    endloop
  endfacet
  facet normal 0 0 1
    outer loop
      vertex 8.68241 49.2404 1005
      vertex 17.101 -46.9846 1005
      vertex 17.101 46.9846 1005
    endloop
  endfacet
  facet normal 0 0 1
    outer loop
      vertex 8.68241 49.2404 1005
      vertex 8.68241 -49.2404 1005
      vertex 17.101 -46.9846 1005
    endloop
  endfacet
  facet normal 0 0 1
    outer loop
      vertex 0 50 1005
      vertex 8.68241 -49.2404 1005
      vertex 8.68241 49.2404 1005
    endloop
  endfacet
  facet normal 0 0 1
    outer loop
      vertex 0 50 1005
      vertex 0 -50 1005
      vertex 8.68241 -49.2404 1005
    endloop
  endfacet
  facet normal -0 0 1
    outer loop
      vertex -8.68241 49.2404 1005
      vertex 0 -50 1005
      vertex 0 50 1005
    endloop
  endfacet
  facet normal 0 0 1
    outer loop
      vertex -8.68241 49.2404 1005
      vertex -8.68241 -49.2404 1005
      vertex 0 -50 1005
    endloop
  endfacet
  facet normal -0 0 1
    outer loop
      vertex -17.101 46.9846 1005
      vertex -8.68241 -49.2404 1005
      vertex -8.68241 49.2404 1005
    endloop
  endfacet
  facet normal 0 0 1
    outer loop
      vertex -17.101 46.9846 1005
      vertex -17.101 -46.9846 1005
      vertex -8.68241 -49.2404 1005
    endloop
  endfacet
  facet normal -0 0 1
    outer loop
      vertex -25 43.3013 1005
      vertex -17.101 -46.9846 1005
      vertex -17.101 46.9846 1005
    endloop
  endfacet
  facet normal 0 0 1
    outer loop
      vertex -25 43.3013 1005
      vertex -25 -43.3013 1005
      vertex -17.101 -46.9846 1005
    endloop
  endfacet
  facet normal -0 0 1
    outer loop
      vertex -32.1394 38.3022 1005
      vertex -25 -43.3013 1005
      vertex -25 43.3013 1005
    endloop
  endfacet
  facet normal 0 0 1
    outer loop
      vertex -32.1394 38.3022 1005
      vertex -32.1394 -38.3022 1005
      vertex -25 -43.3013 1005
    endloop
  endfacet
  facet normal -0 0 1
    outer loop
      vertex -38.3022 32.1394 1005
      vertex -32.1394 -38.3022 1005
      vertex -32.1394 38.3022 1005
    endloop
  endfacet
  facet normal 0 0 1
    outer loop
      vertex -38.3022 32.1394 1005
      vertex -38.3022 -32.1394 1005
      vertex -32.1394 -38.3022 1005
    endloop
  endfacet
  facet normal -0 0 1
    outer loop
      vertex -43.3013 25 1005
      vertex -38.3022 -32.1394 1005
      vertex -38.3022 32.1394 1005
    endloop
  endfacet
  facet normal 0 0 1
    outer loop
      vertex -43.3013 25 1005
      vertex -43.3013 -25 1005
      vertex -38.3022 -32.1394 1005
    endloop
  endfacet
  facet normal -0 0 1
    outer loop
      vertex -46.9846 17.101 1005
      vertex -43.3013 -25 1005
      vertex -43.3013 25 1005
    endloop
  endfacet
  facet normal 0 0 1
    outer loop
      vertex -46.9846 17.101 1005
      vertex -46.9846 -17.101 1005
      vertex -43.3013 -25 1005
    endloop
  endfacet
  facet normal -0 0 1
    outer loop
      vertex -49.2404 8.68241 1005
      vertex -46.9846 -17.101 1005
      vertex -46.9846 17.101 1005
    endloop
  endfacet
  facet normal 0 0 1
    outer loop
      vertex -49.2404 8.68241 1005
      vertex -49.2404 -8.68241 1005
      vertex -46.9846 -17.101 1005
    endloop
  endfacet
  facet normal 0 -0 1
    outer loop
      vertex -49.2404 -8.68241 1005
      vertex -49.2404 8.68241 1005
      vertex -50 0 1005
    endloop
  endfacet
  facet normal 0.965926 -0.258819 0
    outer loop
      vertex 46.9846 -17.101 1005
      vertex 49.2404 -8.68241 5
      vertex 49.2404 -8.68241 1005
    endloop
  endfacet
  facet normal 0.965926 -0.258819 0
    outer loop
      vertex 49.2404 -8.68241 5
      vertex 46.9846 -17.101 1005
      vertex 46.9846 -17.101 5
    endloop
  endfacet
  facet normal 0.707107 -0.707107 0
    outer loop
      vertex 32.1394 -38.3022 1005
      vertex 38.3022 -32.1394 5
      vertex 38.3022 -32.1394 1005
    endloop
  endfacet
  facet normal 0.707107 -0.707107 0
    outer loop
      vertex 38.3022 -32.1394 5
      vertex 32.1394 -38.3022 1005
      vertex 32.1394 -38.3022 5
    endloop
  endfacet
  facet normal 0.422618 -0.906308 0
    outer loop
      vertex 17.101 -46.9846 5
      vertex 25 -43.3013 1005
      vertex 17.101 -46.9846 1005
    endloop
  endfacet
  facet normal 0.422618 -0.906308 0
    outer loop
      vertex 25 -43.3013 1005
      vertex 17.101 -46.9846 5
      vertex 25 -43.3013 5
    endloop
  endfacet
  facet normal 0.906308 -0.422618 0
    outer loop
      vertex 43.3013 -25 1005
      vertex 46.9846 -17.101 5
      vertex 46.9846 -17.101 1005
    endloop
  endfacet
  facet normal 0.906308 -0.422618 0
    outer loop
      vertex 46.9846 -17.101 5
      vertex 43.3013 -25 1005
      vertex 43.3013 -25 5
    endloop
  endfacet
  facet normal -0.573576 -0.819152 0
    outer loop
      vertex -32.1394 -38.3022 5
      vertex -25 -43.3013 1005
      vertex -32.1394 -38.3022 1005
    endloop
  endfacet
  facet normal -0.573576 -0.819152 -0
    outer loop
      vertex -25 -43.3013 1005
      vertex -32.1394 -38.3022 5
      vertex -25 -43.3013 5
    endloop
  endfacet
  facet normal -0.965926 -0.258819 0
    outer loop
      vertex -46.9846 -17.101 5
      vertex -49.2404 -8.68241 1005
      vertex -49.2404 -8.68241 5
    endloop
  endfacet
  facet normal -0.965926 -0.258819 0
    outer loop
      vertex -49.2404 -8.68241 1005
      vertex -46.9846 -17.101 5
      vertex -46.9846 -17.101 1005
    endloop
  endfacet
  facet normal 0.996195 -0.0871558 0
    outer loop
      vertex 49.2404 -8.68241 1005
      vertex 50 0 5
      vertex 50 0 1005
    endloop
  endfacet
  facet normal 0.996195 -0.0871558 0
    outer loop
      vertex 50 0 5
      vertex 49.2404 -8.68241 1005
      vertex 49.2404 -8.68241 5
    endloop
  endfacet
  facet normal 0.573576 -0.819152 0
    outer loop
      vertex 25 -43.3013 5
      vertex 32.1394 -38.3022 1005
      vertex 25 -43.3013 1005
    endloop
  endfacet
  facet normal 0.573576 -0.819152 0
    outer loop
      vertex 32.1394 -38.3022 1005
      vertex 25 -43.3013 5
      vertex 32.1394 -38.3022 5
    endloop
  endfacet
  facet normal -0.0871558 -0.996195 0
    outer loop
      vertex -8.68241 -49.2404 5
      vertex 0 -50 1005
      vertex -8.68241 -49.2404 1005
    endloop
  endfacet
  facet normal -0.0871558 -0.996195 -0
    outer loop
      vertex 0 -50 1005
      vertex -8.68241 -49.2404 5
      vertex 0 -50 5
    endloop
  endfacet
endsolid OpenSCAD_Model
