solid
 facet normal  4.257793e-01 -9.048271e-01  0.000000e+00
   outer loop
     vertex  2.679134e+01 -4.221640e+01  1.010000e+03
     vertex  1.545085e+01 -4.755283e+01  1.010000e+03
     vertex  2.679134e+01 -4.221640e+01  1.000000e+01
   endloop
 endfacet
 facet normal  6.374240e-01 -7.705132e-01  0.000000e+00
   outer loop
     vertex  2.679134e+01 -4.221640e+01  1.010000e+03
     vertex  2.679134e+01 -4.221640e+01  1.000000e+01
     vertex  3.644843e+01 -3.422736e+01  1.000000e+01
   endloop
 endfacet
 facet normal  6.374240e-01 -7.705132e-01  0.000000e+00
   outer loop
     vertex  3.644843e+01 -3.422736e+01  1.010000e+03
     vertex  2.679134e+01 -4.221640e+01  1.010000e+03
     vertex  3.644843e+01 -3.422736e+01  1.000000e+01
   endloop
 endfacet
 facet normal  8.090170e-01 -5.877853e-01  0.000000e+00
   outer loop
     vertex  3.644843e+01 -3.422736e+01  1.010000e+03
     vertex  3.644843e+01 -3.422736e+01  1.000000e+01
     vertex  4.381533e+01 -2.408768e+01  1.000000e+01
   endloop
 endfacet
 facet normal  9.921147e-01  1.253332e-01  0.000000e+00
   outer loop
     vertex  4.842916e+01  1.243449e+01  1.010000e+03
     vertex  5.000000e+01 -1.224647e-14  1.000000e+01
     vertex  4.842916e+01  1.243449e+01  1.000000e+01
   endloop
 endfacet
 facet normal  8.090170e-01 -5.877853e-01  0.000000e+00
   outer loop
     vertex  4.381533e+01 -2.408768e+01  1.010000e+03
     vertex  3.644843e+01 -3.422736e+01  1.010000e+03
     vertex  4.381533e+01 -2.408768e+01  1.000000e+01
   endloop
 endfacet
 facet normal  9.921147e-01  1.253332e-01  0.000000e+00
   outer loop
     vertex  4.842916e+01  1.243449e+01  1.010000e+03
     vertex  5.000000e+01 -1.224647e-14  1.010000e+03
     vertex  5.000000e+01 -1.224647e-14  1.000000e+01
   endloop
 endfacet
 facet normal  9.297765e-01 -3.681246e-01  0.000000e+00
   outer loop
     vertex  4.381533e+01 -2.408768e+01  1.010000e+03
     vertex  4.381533e+01 -2.408768e+01  1.000000e+01
     vertex  4.842916e+01 -1.243449e+01  1.000000e+01
   endloop
 endfacet
 facet normal  9.297765e-01 -3.681246e-01  0.000000e+00
   outer loop
     vertex  4.842916e+01 -1.243449e+01  1.010000e+03
     vertex  4.381533e+01 -2.408768e+01  1.010000e+03
     vertex  4.842916e+01 -1.243449e+01  1.000000e+01
   endloop
 endfacet
 facet normal  9.297765e-01  3.681246e-01  0.000000e+00
   outer loop
     vertex  4.381533e+01  2.408768e+01  1.010000e+03
     vertex  4.842916e+01  1.243449e+01  1.000000e+01
     vertex  4.381533e+01  2.408768e+01  1.000000e+01
   endloop
 endfacet
 facet normal  9.297765e-01  3.681246e-01  0.000000e+00
   outer loop
     vertex  4.381533e+01  2.408768e+01  1.010000e+03
     vertex  4.842916e+01  1.243449e+01  1.010000e+03
     vertex  4.842916e+01  1.243449e+01  1.000000e+01
   endloop
 endfacet
 facet normal  9.921147e-01 -1.253332e-01  0.000000e+00
   outer loop
     vertex  5.000000e+01 -1.224647e-14  1.010000e+03
     vertex  4.842916e+01 -1.243449e+01  1.000000e+01
     vertex  5.000000e+01 -1.224647e-14  1.000000e+01
   endloop
 endfacet
 facet normal  9.921147e-01 -1.253332e-01  0.000000e+00
   outer loop
     vertex  5.000000e+01 -1.224647e-14  1.010000e+03
     vertex  4.842916e+01 -1.243449e+01  1.010000e+03
     vertex  4.842916e+01 -1.243449e+01  1.000000e+01
   endloop
 endfacet
 facet normal  8.090170e-01  5.877853e-01  0.000000e+00
   outer loop
     vertex  3.644843e+01  3.422736e+01  1.010000e+03
     vertex  4.381533e+01  2.408768e+01  1.000000e+01
     vertex  3.644843e+01  3.422736e+01  1.000000e+01
   endloop
 endfacet
 facet normal  6.374240e-01  7.705132e-01  0.000000e+00
   outer loop
     vertex  3.644843e+01  3.422736e+01  1.010000e+03
     vertex  3.644843e+01  3.422736e+01  1.000000e+01
     vertex  2.679134e+01  4.221640e+01  1.000000e+01
   endloop
 endfacet
 facet normal  8.090170e-01  5.877853e-01  0.000000e+00
   outer loop
     vertex  3.644843e+01  3.422736e+01  1.010000e+03
     vertex  4.381533e+01  2.408768e+01  1.010000e+03
     vertex  4.381533e+01  2.408768e+01  1.000000e+01
   endloop
 endfacet
 facet normal  4.257793e-01  9.048271e-01  0.000000e+00
   outer loop
     vertex  2.679134e+01  4.221640e+01  1.010000e+03
     vertex  2.679134e+01  4.221640e+01  1.000000e+01
     vertex  1.545085e+01  4.755283e+01  1.000000e+01
   endloop
 endfacet
 facet normal  6.374240e-01  7.705132e-01  0.000000e+00
   outer loop
     vertex  2.679134e+01  4.221640e+01  1.010000e+03
     vertex  3.644843e+01  3.422736e+01  1.010000e+03
     vertex  2.679134e+01  4.221640e+01  1.000000e+01
   endloop
 endfacet
 facet normal  1.873813e-01  9.822873e-01  0.000000e+00
   outer loop
     vertex  1.545085e+01  4.755283e+01  1.010000e+03
     vertex  1.545085e+01  4.755283e+01  1.000000e+01
     vertex  3.139526e+00  4.990134e+01  1.000000e+01
   endloop
 endfacet
 facet normal  4.257793e-01  9.048271e-01  0.000000e+00
   outer loop
     vertex  1.545085e+01  4.755283e+01  1.010000e+03
     vertex  2.679134e+01  4.221640e+01  1.010000e+03
     vertex  1.545085e+01  4.755283e+01  1.000000e+01
   endloop
 endfacet
 facet normal -6.279052e-02  9.980267e-01  0.000000e+00
   outer loop
     vertex  3.139526e+00  4.990134e+01  1.010000e+03
     vertex  3.139526e+00  4.990134e+01  1.000000e+01
     vertex -9.369066e+00  4.911436e+01  1.000000e+01
   endloop
 endfacet
 facet normal  1.873813e-01  9.822873e-01  0.000000e+00
   outer loop
     vertex  3.139526e+00  4.990134e+01  1.010000e+03
     vertex  1.545085e+01  4.755283e+01  1.010000e+03
     vertex  3.139526e+00  4.990134e+01  1.000000e+01
   endloop
 endfacet
 facet normal -6.279052e-02  9.980267e-01  0.000000e+00
   outer loop
     vertex -9.369066e+00  4.911436e+01  1.010000e+03
     vertex  3.139526e+00  4.990134e+01  1.010000e+03
     vertex -9.369066e+00  4.911436e+01  1.000000e+01
   endloop
 endfacet
 facet normal -3.090170e-01  9.510565e-01  0.000000e+00
   outer loop
     vertex -2.128896e+01  4.524135e+01  1.010000e+03
     vertex -9.369066e+00  4.911436e+01  1.000000e+01
     vertex -2.128896e+01  4.524135e+01  1.000000e+01
   endloop
 endfacet
 facet normal -5.358268e-01  8.443279e-01  0.000000e+00
   outer loop
     vertex -2.128896e+01  4.524135e+01  1.010000e+03
     vertex -2.128896e+01  4.524135e+01  1.000000e+01
     vertex -3.187120e+01  3.852566e+01  1.000000e+01
   endloop
 endfacet
 facet normal -3.090170e-01  9.510565e-01  0.000000e+00
   outer loop
     vertex -2.128896e+01  4.524135e+01  1.010000e+03
     vertex -9.369066e+00  4.911436e+01  1.010000e+03
     vertex -9.369066e+00  4.911436e+01  1.000000e+01
   endloop
 endfacet
 facet normal -5.358268e-01  8.443279e-01  0.000000e+00
   outer loop
     vertex -3.187120e+01  3.852566e+01  1.010000e+03
     vertex -2.128896e+01  4.524135e+01  1.010000e+03
     vertex -3.187120e+01  3.852566e+01  1.000000e+01
   endloop
 endfacet
 facet normal -7.289686e-01  6.845471e-01  0.000000e+00
   outer loop
     vertex -4.045085e+01  2.938926e+01  1.010000e+03
     vertex -3.187120e+01  3.852566e+01  1.000000e+01
     vertex -4.045085e+01  2.938926e+01  1.000000e+01
   endloop
 endfacet
 facet normal -8.763067e-01  4.817537e-01  0.000000e+00
   outer loop
     vertex -4.045085e+01  2.938926e+01  1.010000e+03
     vertex -4.045085e+01  2.938926e+01  1.000000e+01
     vertex -4.648882e+01  1.840623e+01  1.000000e+01
   endloop
 endfacet
 facet normal -7.289686e-01  6.845471e-01  0.000000e+00
   outer loop
     vertex -4.045085e+01  2.938926e+01  1.010000e+03
     vertex -3.187120e+01  3.852566e+01  1.010000e+03
     vertex -3.187120e+01  3.852566e+01  1.000000e+01
   endloop
 endfacet
 facet normal -8.763067e-01  4.817537e-01  0.000000e+00
   outer loop
     vertex -4.648882e+01  1.840623e+01  1.010000e+03
     vertex -4.045085e+01  2.938926e+01  1.010000e+03
     vertex -4.648882e+01  1.840623e+01  1.000000e+01
   endloop
 endfacet
 facet normal -9.685832e-01  2.486899e-01  0.000000e+00
   outer loop
     vertex -4.960574e+01  6.266662e+00  1.010000e+03
     vertex -4.648882e+01  1.840623e+01  1.000000e+01
     vertex -4.960574e+01  6.266662e+00  1.000000e+01
   endloop
 endfacet
 facet normal -1.000000e+00  5.669228e-16  0.000000e+00
   outer loop
     vertex -4.960574e+01  6.266662e+00  1.010000e+03
     vertex -4.960574e+01  6.266662e+00  1.000000e+01
     vertex -4.960574e+01 -6.266662e+00  1.000000e+01
   endloop
 endfacet
 facet normal -9.685832e-01  2.486899e-01  0.000000e+00
   outer loop
     vertex -4.960574e+01  6.266662e+00  1.010000e+03
     vertex -4.648882e+01  1.840623e+01  1.010000e+03
     vertex -4.648882e+01  1.840623e+01  1.000000e+01
   endloop
 endfacet
 facet normal -1.000000e+00  5.669228e-16  0.000000e+00
   outer loop
     vertex -4.960574e+01 -6.266662e+00  1.010000e+03
     vertex -4.960574e+01  6.266662e+00  1.010000e+03
     vertex -4.960574e+01 -6.266662e+00  1.000000e+01
   endloop
 endfacet
 facet normal -9.685832e-01 -2.486899e-01 -0.000000e+00
   outer loop
     vertex -4.960574e+01 -6.266662e+00  1.010000e+03
     vertex -4.960574e+01 -6.266662e+00  1.000000e+01
     vertex -4.648882e+01 -1.840623e+01  1.000000e+01
   endloop
 endfacet
 facet normal -9.685832e-01 -2.486899e-01  0.000000e+00
   outer loop
     vertex -4.648882e+01 -1.840623e+01  1.010000e+03
     vertex -4.960574e+01 -6.266662e+00  1.010000e+03
     vertex -4.648882e+01 -1.840623e+01  1.000000e+01
   endloop
 endfacet
 facet normal -8.763067e-01 -4.817537e-01 -0.000000e+00
   outer loop
     vertex -4.648882e+01 -1.840623e+01  1.010000e+03
     vertex -4.648882e+01 -1.840623e+01  1.000000e+01
     vertex -4.045085e+01 -2.938926e+01  1.000000e+01
   endloop
 endfacet
 facet normal -8.763067e-01 -4.817537e-01  0.000000e+00
   outer loop
     vertex -4.045085e+01 -2.938926e+01  1.010000e+03
     vertex -4.648882e+01 -1.840623e+01  1.010000e+03
     vertex -4.045085e+01 -2.938926e+01  1.000000e+01
   endloop
 endfacet
 facet normal -7.289686e-01 -6.845471e-01 -0.000000e+00
   outer loop
     vertex -4.045085e+01 -2.938926e+01  1.010000e+03
     vertex -4.045085e+01 -2.938926e+01  1.000000e+01
     vertex -3.187120e+01 -3.852566e+01  1.000000e+01
   endloop
 endfacet
 facet normal -7.289686e-01 -6.845471e-01  0.000000e+00
   outer loop
     vertex -3.187120e+01 -3.852566e+01  1.010000e+03
     vertex -4.045085e+01 -2.938926e+01  1.010000e+03
     vertex -3.187120e+01 -3.852566e+01  1.000000e+01
   endloop
 endfacet
 facet normal -5.358268e-01 -8.443279e-01 -0.000000e+00
   outer loop
     vertex -3.187120e+01 -3.852566e+01  1.010000e+03
     vertex -3.187120e+01 -3.852566e+01  1.000000e+01
     vertex -2.128896e+01 -4.524135e+01  1.000000e+01
   endloop
 endfacet
 facet normal -5.358268e-01 -8.443279e-01  0.000000e+00
   outer loop
     vertex -2.128896e+01 -4.524135e+01  1.010000e+03
     vertex -3.187120e+01 -3.852566e+01  1.010000e+03
     vertex -2.128896e+01 -4.524135e+01  1.000000e+01
   endloop
 endfacet
 facet normal -3.090170e-01 -9.510565e-01 -0.000000e+00
   outer loop
     vertex -2.128896e+01 -4.524135e+01  1.010000e+03
     vertex -2.128896e+01 -4.524135e+01  1.000000e+01
     vertex -9.369066e+00 -4.911436e+01  1.000000e+01
   endloop
 endfacet
 facet normal -3.090170e-01 -9.510565e-01  0.000000e+00
   outer loop
     vertex -9.369066e+00 -4.911436e+01  1.010000e+03
     vertex -2.128896e+01 -4.524135e+01  1.010000e+03
     vertex -9.369066e+00 -4.911436e+01  1.000000e+01
   endloop
 endfacet
 facet normal -6.279052e-02 -9.980267e-01 -0.000000e+00
   outer loop
     vertex -9.369066e+00 -4.911436e+01  1.010000e+03
     vertex -9.369066e+00 -4.911436e+01  1.000000e+01
     vertex  3.139526e+00 -4.990134e+01  1.000000e+01
   endloop
 endfacet
 facet normal -6.279052e-02 -9.980267e-01  0.000000e+00
   outer loop
     vertex  3.139526e+00 -4.990134e+01  1.010000e+03
     vertex -9.369066e+00 -4.911436e+01  1.010000e+03
     vertex  3.139526e+00 -4.990134e+01  1.000000e+01
   endloop
 endfacet
 facet normal  1.873813e-01 -9.822873e-01  0.000000e+00
   outer loop
     vertex  3.139526e+00 -4.990134e+01  1.010000e+03
     vertex  3.139526e+00 -4.990134e+01  1.000000e+01
     vertex  1.545085e+01 -4.755283e+01  1.000000e+01
   endloop
 endfacet
 facet normal  1.873813e-01 -9.822873e-01  0.000000e+00
   outer loop
     vertex  1.545085e+01 -4.755283e+01  1.010000e+03
     vertex  3.139526e+00 -4.990134e+01  1.010000e+03
     vertex  1.545085e+01 -4.755283e+01  1.000000e+01
   endloop
 endfacet
 facet normal  4.257793e-01 -9.048271e-01  0.000000e+00
   outer loop
     vertex  1.545085e+01 -4.755283e+01  1.010000e+03
     vertex  1.545085e+01 -4.755283e+01  1.000000e+01
     vertex  2.679134e+01 -4.221640e+01  1.000000e+01
   endloop
 endfacet
 facet normal  0.000000e+00  0.000000e+00  1.000000e+00
   outer loop
     vertex -2.128896e+01 -4.524135e+01  1.010000e+03
     vertex -4.045085e+01 -2.938926e+01  1.010000e+03
     vertex -3.187120e+01 -3.852566e+01  1.010000e+03
   endloop
 endfacet
 facet normal  0.000000e+00  0.000000e+00  1.000000e+00
   outer loop
     vertex  3.139526e+00 -4.990134e+01  1.010000e+03
     vertex -2.128896e+01 -4.524135e+01  1.010000e+03
     vertex -9.369066e+00 -4.911436e+01  1.010000e+03
   endloop
 endfacet
 facet normal  0.000000e+00  0.000000e+00  1.000000e+00
   outer loop
     vertex -4.960574e+01  6.266662e+00  1.010000e+03
     vertex -4.960574e+01 -6.266662e+00  1.010000e+03
     vertex -4.648882e+01 -1.840623e+01  1.010000e+03
   endloop
 endfacet
 facet normal  0.000000e+00  0.000000e+00  1.000000e+00
   outer loop
     vertex -4.960574e+01  6.266662e+00  1.010000e+03
     vertex -4.648882e+01 -1.840623e+01  1.010000e+03
     vertex -4.045085e+01 -2.938926e+01  1.010000e+03
   endloop
 endfacet
 facet normal -0.000000e+00  0.000000e+00  1.000000e+00
   outer loop
     vertex  3.644843e+01 -3.422736e+01  1.010000e+03
     vertex  3.139526e+00 -4.990134e+01  1.010000e+03
     vertex  1.545085e+01 -4.755283e+01  1.010000e+03
   endloop
 endfacet
 facet normal -0.000000e+00  0.000000e+00  1.000000e+00
   outer loop
     vertex  3.644843e+01 -3.422736e+01  1.010000e+03
     vertex  1.545085e+01 -4.755283e+01  1.010000e+03
     vertex  2.679134e+01 -4.221640e+01  1.010000e+03
   endloop
 endfacet
 facet normal  0.000000e+00  0.000000e+00  1.000000e+00
   outer loop
     vertex  3.644843e+01 -3.422736e+01  1.010000e+03
     vertex -4.045085e+01 -2.938926e+01  1.010000e+03
     vertex -2.128896e+01 -4.524135e+01  1.010000e+03
   endloop
 endfacet
 facet normal  0.000000e+00  0.000000e+00  1.000000e+00
   outer loop
     vertex  3.644843e+01 -3.422736e+01  1.010000e+03
     vertex -2.128896e+01 -4.524135e+01  1.010000e+03
     vertex  3.139526e+00 -4.990134e+01  1.010000e+03
   endloop
 endfacet
 facet normal  0.000000e+00  0.000000e+00  1.000000e+00
   outer loop
     vertex -3.187120e+01  3.852566e+01  1.010000e+03
     vertex -4.045085e+01  2.938926e+01  1.010000e+03
     vertex -4.648882e+01  1.840623e+01  1.010000e+03
   endloop
 endfacet
 facet normal  0.000000e+00  0.000000e+00  1.000000e+00
   outer loop
     vertex -3.187120e+01  3.852566e+01  1.010000e+03
     vertex -4.648882e+01  1.840623e+01  1.010000e+03
     vertex -4.960574e+01  6.266662e+00  1.010000e+03
   endloop
 endfacet
 facet normal  0.000000e+00  0.000000e+00  1.000000e+00
   outer loop
     vertex -3.187120e+01  3.852566e+01  1.010000e+03
     vertex -4.960574e+01  6.266662e+00  1.010000e+03
     vertex -4.045085e+01 -2.938926e+01  1.010000e+03
   endloop
 endfacet
 facet normal -0.000000e+00  0.000000e+00  1.000000e+00
   outer loop
     vertex  4.842916e+01 -1.243449e+01  1.010000e+03
     vertex  3.644843e+01 -3.422736e+01  1.010000e+03
     vertex  4.381533e+01 -2.408768e+01  1.010000e+03
   endloop
 endfacet
 facet normal  0.000000e+00  0.000000e+00  1.000000e+00
   outer loop
     vertex -9.369066e+00  4.911436e+01  1.010000e+03
     vertex -2.128896e+01  4.524135e+01  1.010000e+03
     vertex -3.187120e+01  3.852566e+01  1.010000e+03
   endloop
 endfacet
 facet normal  0.000000e+00  0.000000e+00  1.000000e+00
   outer loop
     vertex -9.369066e+00  4.911436e+01  1.010000e+03
     vertex -4.045085e+01 -2.938926e+01  1.010000e+03
     vertex  3.644843e+01 -3.422736e+01  1.010000e+03
   endloop
 endfacet
 facet normal  0.000000e+00  0.000000e+00  1.000000e+00
   outer loop
     vertex -9.369066e+00  4.911436e+01  1.010000e+03
     vertex -3.187120e+01  3.852566e+01  1.010000e+03
     vertex -4.045085e+01 -2.938926e+01  1.010000e+03
   endloop
 endfacet
 facet normal -0.000000e+00  0.000000e+00  1.000000e+00
   outer loop
     vertex  4.842916e+01  1.243449e+01  1.010000e+03
     vertex  4.842916e+01 -1.243449e+01  1.010000e+03
     vertex  5.000000e+01 -1.224647e-14  1.010000e+03
   endloop
 endfacet
 facet normal  0.000000e+00  0.000000e+00  1.000000e+00
   outer loop
     vertex  1.545085e+01  4.755283e+01  1.010000e+03
     vertex  3.139526e+00  4.990134e+01  1.010000e+03
     vertex -9.369066e+00  4.911436e+01  1.010000e+03
   endloop
 endfacet
 facet normal  0.000000e+00  0.000000e+00  1.000000e+00
   outer loop
     vertex  1.545085e+01  4.755283e+01  1.010000e+03
     vertex -9.369066e+00  4.911436e+01  1.010000e+03
     vertex  3.644843e+01 -3.422736e+01  1.010000e+03
   endloop
 endfacet
 facet normal -0.000000e+00  0.000000e+00  1.000000e+00
   outer loop
     vertex  4.381533e+01  2.408768e+01  1.010000e+03
     vertex  3.644843e+01 -3.422736e+01  1.010000e+03
     vertex  4.842916e+01 -1.243449e+01  1.010000e+03
   endloop
 endfacet
 facet normal -0.000000e+00 -0.000000e+00  1.000000e+00
   outer loop
     vertex  4.381533e+01  2.408768e+01  1.010000e+03
     vertex  4.842916e+01 -1.243449e+01  1.010000e+03
     vertex  4.842916e+01  1.243449e+01  1.010000e+03
   endloop
 endfacet
 facet normal  0.000000e+00  0.000000e+00  1.000000e+00
   outer loop
     vertex  4.381533e+01  2.408768e+01  1.010000e+03
     vertex  1.545085e+01  4.755283e+01  1.010000e+03
     vertex  3.644843e+01 -3.422736e+01  1.010000e+03
   endloop
 endfacet
 facet normal  0.000000e+00  0.000000e+00  1.000000e+00
   outer loop
     vertex  3.644843e+01  3.422736e+01  1.010000e+03
     vertex  2.679134e+01  4.221640e+01  1.010000e+03
     vertex  1.545085e+01  4.755283e+01  1.010000e+03
   endloop
 endfacet
 facet normal  0.000000e+00  0.000000e+00  1.000000e+00
   outer loop
     vertex  3.644843e+01  3.422736e+01  1.010000e+03
     vertex  1.545085e+01  4.755283e+01  1.010000e+03
     vertex  4.381533e+01  2.408768e+01  1.010000e+03
   endloop
 endfacet
 facet normal  0.000000e+00  0.000000e+00 -1.000000e+00
   outer loop
     vertex -3.187120e+01 -3.852566e+01  1.000000e+01
     vertex -4.045085e+01 -2.938926e+01  1.000000e+01
     vertex -2.128896e+01 -4.524135e+01  1.000000e+01
   endloop
 endfacet
 facet normal  0.000000e+00  0.000000e+00 -1.000000e+00
   outer loop
     vertex -9.369066e+00 -4.911436e+01  1.000000e+01
     vertex -2.128896e+01 -4.524135e+01  1.000000e+01
     vertex  3.139526e+00 -4.990134e+01  1.000000e+01
   endloop
 endfacet
 facet normal  0.000000e+00  0.000000e+00 -1.000000e+00
   outer loop
     vertex -4.648882e+01 -1.840623e+01  1.000000e+01
     vertex -4.960574e+01 -6.266662e+00  1.000000e+01
     vertex -4.960574e+01  6.266662e+00  1.000000e+01
   endloop
 endfacet
 facet normal  0.000000e+00  0.000000e+00 -1.000000e+00
   outer loop
     vertex -4.045085e+01 -2.938926e+01  1.000000e+01
     vertex -4.648882e+01 -1.840623e+01  1.000000e+01
     vertex -4.960574e+01  6.266662e+00  1.000000e+01
   endloop
 endfacet
 facet normal -0.000000e+00  0.000000e+00 -1.000000e+00
   outer loop
     vertex  1.545085e+01 -4.755283e+01  1.000000e+01
     vertex  3.139526e+00 -4.990134e+01  1.000000e+01
     vertex  3.644843e+01 -3.422736e+01  1.000000e+01
   endloop
 endfacet
 facet normal -0.000000e+00  0.000000e+00 -1.000000e+00
   outer loop
     vertex  2.679134e+01 -4.221640e+01  1.000000e+01
     vertex  1.545085e+01 -4.755283e+01  1.000000e+01
     vertex  3.644843e+01 -3.422736e+01  1.000000e+01
   endloop
 endfacet
 facet normal  0.000000e+00  0.000000e+00 -1.000000e+00
   outer loop
     vertex -2.128896e+01 -4.524135e+01  1.000000e+01
     vertex -4.045085e+01 -2.938926e+01  1.000000e+01
     vertex  3.644843e+01 -3.422736e+01  1.000000e+01
   endloop
 endfacet
 facet normal  0.000000e+00  0.000000e+00 -1.000000e+00
   outer loop
     vertex  3.139526e+00 -4.990134e+01  1.000000e+01
     vertex -2.128896e+01 -4.524135e+01  1.000000e+01
     vertex  3.644843e+01 -3.422736e+01  1.000000e+01
   endloop
 endfacet
 facet normal  0.000000e+00  0.000000e+00 -1.000000e+00
   outer loop
     vertex -4.648882e+01  1.840623e+01  1.000000e+01
     vertex -4.045085e+01  2.938926e+01  1.000000e+01
     vertex -3.187120e+01  3.852566e+01  1.000000e+01
   endloop
 endfacet
 facet normal  0.000000e+00  0.000000e+00 -1.000000e+00
   outer loop
     vertex -4.960574e+01  6.266662e+00  1.000000e+01
     vertex -4.648882e+01  1.840623e+01  1.000000e+01
     vertex -3.187120e+01  3.852566e+01  1.000000e+01
   endloop
 endfacet
 facet normal  0.000000e+00  0.000000e+00 -1.000000e+00
   outer loop
     vertex -4.045085e+01 -2.938926e+01  1.000000e+01
     vertex -4.960574e+01  6.266662e+00  1.000000e+01
     vertex -3.187120e+01  3.852566e+01  1.000000e+01
   endloop
 endfacet
 facet normal -0.000000e+00  0.000000e+00 -1.000000e+00
   outer loop
     vertex  4.381533e+01 -2.408768e+01  1.000000e+01
     vertex  3.644843e+01 -3.422736e+01  1.000000e+01
     vertex  4.842916e+01 -1.243449e+01  1.000000e+01
   endloop
 endfacet
 facet normal  0.000000e+00  0.000000e+00 -1.000000e+00
   outer loop
     vertex -3.187120e+01  3.852566e+01  1.000000e+01
     vertex -2.128896e+01  4.524135e+01  1.000000e+01
     vertex -9.369066e+00  4.911436e+01  1.000000e+01
   endloop
 endfacet
 facet normal  0.000000e+00  0.000000e+00 -1.000000e+00
   outer loop
     vertex  3.644843e+01 -3.422736e+01  1.000000e+01
     vertex -4.045085e+01 -2.938926e+01  1.000000e+01
     vertex -9.369066e+00  4.911436e+01  1.000000e+01
   endloop
 endfacet
 facet normal  0.000000e+00  0.000000e+00 -1.000000e+00
   outer loop
     vertex -4.045085e+01 -2.938926e+01  1.000000e+01
     vertex -3.187120e+01  3.852566e+01  1.000000e+01
     vertex -9.369066e+00  4.911436e+01  1.000000e+01
   endloop
 endfacet
 facet normal -0.000000e+00  0.000000e+00 -1.000000e+00
   outer loop
     vertex  5.000000e+01 -1.224647e-14  1.000000e+01
     vertex  4.842916e+01 -1.243449e+01  1.000000e+01
     vertex  4.842916e+01  1.243449e+01  1.000000e+01
   endloop
 endfacet
 facet normal  0.000000e+00  0.000000e+00 -1.000000e+00
   outer loop
     vertex -9.369066e+00  4.911436e+01  1.000000e+01
     vertex  3.139526e+00  4.990134e+01  1.000000e+01
     vertex  1.545085e+01  4.755283e+01  1.000000e+01
   endloop
 endfacet
 facet normal  0.000000e+00  0.000000e+00 -1.000000e+00
   outer loop
     vertex  3.644843e+01 -3.422736e+01  1.000000e+01
     vertex -9.369066e+00  4.911436e+01  1.000000e+01
     vertex  1.545085e+01  4.755283e+01  1.000000e+01
   endloop
 endfacet
 facet normal -0.000000e+00  0.000000e+00 -1.000000e+00
   outer loop
     vertex  4.842916e+01 -1.243449e+01  1.000000e+01
     vertex  3.644843e+01 -3.422736e+01  1.000000e+01
     vertex  4.381533e+01  2.408768e+01  1.000000e+01
   endloop
 endfacet
 facet normal  0.000000e+00  0.000000e+00 -1.000000e+00
   outer loop
     vertex  3.644843e+01 -3.422736e+01  1.000000e+01
     vertex  1.545085e+01  4.755283e+01  1.000000e+01
     vertex  4.381533e+01  2.408768e+01  1.000000e+01
   endloop
 endfacet
 facet normal -0.000000e+00 -0.000000e+00 -1.000000e+00
   outer loop
     vertex  4.842916e+01  1.243449e+01  1.000000e+01
     vertex  4.842916e+01 -1.243449e+01  1.000000e+01
     vertex  4.381533e+01  2.408768e+01  1.000000e+01
   endloop
 endfacet
 facet normal  0.000000e+00  0.000000e+00 -1.000000e+00
   outer loop
     vertex  1.545085e+01  4.755283e+01  1.000000e+01
     vertex  2.679134e+01  4.221640e+01  1.000000e+01
     vertex  3.644843e+01  3.422736e+01  1.000000e+01
   endloop
 endfacet
 facet normal  0.000000e+00  0.000000e+00 -1.000000e+00
   outer loop
     vertex  4.381533e+01  2.408768e+01  1.000000e+01
     vertex  1.545085e+01  4.755283e+01  1.000000e+01
     vertex  3.644843e+01  3.422736e+01  1.000000e+01
   endloop
 endfacet
endsolid
